<svg width="63" height="63" viewBox="0 0 63 63" fill="none" xmlns="http://www.w3.org/2000/svg">
<rect width="62.5" height="62.5" rx="14" fill="black"/>
<path d="M13 32.8C13.9548 32.8 14.8705 32.4207 15.5456 31.7456C16.2207 31.0705 16.6 30.1548 16.6 29.2V22C16.6 21.0452 16.9793 20.1295 17.6544 19.4544C18.3295 18.7793 19.2452 18.4 20.2 18.4C21.1548 18.4 22.0705 18.7793 22.7456 19.4544C23.4207 20.1295 23.8 21.0452 23.8 22V45.4C23.8 46.3548 24.1793 47.2705 24.8544 47.9456C25.5295 48.6207 26.4452 49 27.4 49C28.3548 49 29.2705 48.6207 29.9456 47.9456C30.6207 47.2705 31 46.3548 31 45.4V16.6C31 15.6452 31.3793 14.7295 32.0544 14.0544C32.7295 13.3793 33.6452 13 34.6 13C35.5548 13 36.4705 13.3793 37.1456 14.0544C37.8207 14.7295 38.2 15.6452 38.2 16.6V40C38.2 40.9548 38.5793 41.8705 39.2544 42.5456C39.9295 43.2207 40.8452 43.6 41.8 43.6C42.7548 43.6 43.6705 43.2207 44.3456 42.5456C45.0207 41.8705 45.4 40.9548 45.4 40V32.8C45.4 31.8452 45.7793 30.9295 46.4544 30.2544C47.1295 29.5793 48.0452 29.2 49 29.2" stroke="white" stroke-width="3" stroke-linecap="round" stroke-linejoin="round"/>
</svg>
